<svg class="header__logoSVG" width="607.822" height="420.405" viewBox="0 0 607.822 420.405" xmlns="http://www.w3.org/2000/svg" xmlns:xlink= "http://www.w3.org/1999/xlink">
    <g transform="translate(-117 -97.862)">
        <path id="Path_582" data-name="Path 582" d="M573.98,114.11a8.144,8.144,0,0,0-14.08,0L409.3,374.61a3.666,3.666,0,0,0,1.23,4.94c39.67,24.92,68.81,33.73,84.62,37.01a3.649,3.649,0,0,0,3.9-1.76l62.52-108.74a6.186,6.186,0,0,1,10.7,0l62.49,108.7a3.647,3.647,0,0,0,3.9,1.76c15.81-3.28,44.77-12.05,84.44-36.97a3.666,3.666,0,0,0,1.23-4.94Z" fill="#003e50"></path>
        <path id="Path_583" data-name="Path 583" d="M271.5,313.75c-41.64,0-73.61-41.47-56.84-85.37a57.038,57.038,0,0,1,32.77-32.82c43.91-16.86,85.44,15.12,85.44,56.8a61.385,61.385,0,0,1-61.37,61.39M479.13,438.61c-12.86-1.78-46.06-9.05-92.9-38.74a238.692,238.692,0,0,0-31.01-16.77.488.488,0,0,1-.06-.86c53.2-34.31,83.94-100.43,65.4-171.47A150.849,150.849,0,0,0,310.2,102.56C208.1,77.78,117,154.44,117,252.36A154.5,154.5,0,0,0,255.69,406.05a.5.5,0,0,1,.38.74l-20.39,35.56a4.493,4.493,0,0,0,4.01,6.73c19.17-.49,51.19-1.34,100.99,30.2,54.62,34.61,87.16,38.39,94.07,38.89,1.84.14,4.75.6,6.67-2.99,4.97-8.91,40.58-70.73,40.58-70.73a3.926,3.926,0,0,0-2.87-5.84" fill="#003e50"></path>
    </g>
</svg>